<?xml version="1.0" encoding="UTF-8"?>
<svg xmlns="http://www.w3.org/2000/svg" xmlns:xlink="http://www.w3.org/1999/xlink" width="375pt" height="374.999991pt" viewBox="0 0 375 374.999991" version="1.2">
<defs>
<clipPath id="clip1">
  <path d="M 157.046875 32.039062 L 229.046875 32.039062 L 229.046875 144.539062 L 157.046875 144.539062 Z M 157.046875 32.039062 "/>
</clipPath>
<clipPath id="clip2">
  <path d="M 117.96875 175 L 267.84375 175 L 267.84375 258.617188 L 117.96875 258.617188 Z M 117.96875 175 "/>
</clipPath>
<clipPath id="clip3">
  <path d="M 141 135.617188 L 245 135.617188 L 245 211 L 141 211 Z M 141 135.617188 "/>
</clipPath>
</defs>
<g id="surface1">
<rect x="0" y="0" width="375" height="374.999991" style="fill:rgb(100%,100%,100%);fill-opacity:1;stroke:none;"/>
<rect x="0" y="0" width="375" height="374.999991" style="fill:rgb(100%,100%,100%);fill-opacity:1;stroke:none;"/>
<rect x="0" y="0" width="375" height="374.999991" style="fill:rgb(100%,100%,100%);fill-opacity:1;stroke:none;"/>
<g clip-path="url(#clip1)" clip-rule="nonzero">
<path style=" stroke:none;fill-rule:evenodd;fill:rgb(15.689087%,16.079712%,16.468811%);fill-opacity:1;" d="M 203.953125 44.859375 C 204.21875 48.457031 203.566406 51.546875 202.1875 54.441406 C 199.730469 59.609375 194.867188 62.59375 192.742188 67.949219 C 191.546875 70.980469 191.546875 74.175781 192.621094 77.472656 C 192.789062 77.988281 193.015625 78.484375 193.257812 78.96875 C 196.179688 84.835938 200.964844 89.582031 203.003906 95.902344 C 203.820312 98.433594 204.238281 101.125 203.882812 103.777344 C 203.300781 108.136719 200.777344 111.515625 197.394531 114.453125 C 193.609375 117.738281 189.578125 120.757812 186.75 125.046875 C 183.640625 129.773438 182.792969 135.335938 186.316406 144.761719 C 183.929688 139.730469 182.71875 135.5625 182.449219 131.941406 C 182.179688 128.34375 182.832031 125.253906 184.210938 122.359375 C 186.671875 117.191406 191.53125 114.207031 193.65625 108.847656 C 194.851562 105.816406 194.851562 102.621094 193.777344 99.328125 C 193.496094 98.460938 193.0625 97.640625 192.617188 96.847656 C 191.320312 94.527344 189.785156 92.320312 188.195312 90.191406 C 186.03125 87.296875 184.40625 84.132812 183.328125 80.6875 C 182.554688 78.21875 182.167969 75.601562 182.515625 73.023438 C 183.097656 68.660156 185.621094 65.285156 189.003906 62.347656 C 192.789062 59.0625 196.820312 56.042969 199.648438 51.753906 C 202.757812 47.027344 203.609375 41.460938 200.085938 32.039062 C 202.472656 37.070312 203.679688 41.234375 203.953125 44.859375 Z M 226.0625 44.121094 C 228.832031 51.523438 228.164062 55.894531 225.722656 59.609375 C 223.5 62.976562 220.332031 65.351562 217.359375 67.933594 C 214.699219 70.238281 212.71875 72.894531 212.261719 76.320312 C 211.988281 78.34375 212.292969 80.398438 212.898438 82.339844 C 213.746094 85.046875 215.023438 87.535156 216.722656 89.808594 C 217.972656 91.480469 219.179688 93.214844 220.199219 95.039062 C 220.546875 95.660156 220.886719 96.304688 221.109375 96.984375 C 221.953125 99.574219 221.953125 102.085938 221.011719 104.464844 C 219.34375 108.675781 215.523438 111.019531 213.589844 115.082031 C 212.507812 117.351562 211.996094 119.78125 212.207031 122.605469 C 212.417969 125.453125 213.371094 128.726562 215.246094 132.679688 C 212.476562 125.277344 213.144531 120.902344 215.585938 117.191406 C 217.808594 113.820312 220.976562 111.449219 223.949219 108.867188 C 226.609375 106.558594 228.589844 103.90625 229.046875 100.480469 C 229.328125 98.398438 229 96.28125 228.355469 94.292969 C 226.753906 89.328125 222.996094 85.597656 220.703125 80.988281 C 220.511719 80.609375 220.332031 80.21875 220.199219 79.8125 C 219.355469 77.226562 219.355469 74.714844 220.296875 72.332031 C 221.964844 68.125 225.785156 65.78125 227.714844 61.71875 C 228.800781 59.445312 229.3125 57.019531 229.101562 54.191406 C 228.890625 51.347656 227.9375 48.074219 226.0625 44.121094 Z M 171.152344 44.121094 C 173.921875 51.523438 173.253906 55.894531 170.8125 59.609375 C 168.589844 62.976562 165.421875 65.351562 162.449219 67.933594 C 159.792969 70.238281 157.808594 72.894531 157.351562 76.320312 C 157.082031 78.34375 157.382812 80.398438 157.988281 82.339844 C 158.835938 85.046875 160.113281 87.535156 161.8125 89.808594 C 163.0625 91.480469 164.269531 93.214844 165.289062 95.039062 C 165.636719 95.660156 165.976562 96.304688 166.199219 96.984375 C 167.042969 99.574219 167.042969 102.085938 166.101562 104.464844 C 164.433594 108.675781 160.617188 111.019531 158.683594 115.082031 C 157.601562 117.351562 157.085938 119.78125 157.296875 122.605469 C 157.511719 125.453125 158.460938 128.726562 160.335938 132.679688 C 157.566406 125.277344 158.234375 120.902344 160.675781 117.191406 C 162.902344 113.820312 166.066406 111.449219 169.039062 108.867188 C 171.699219 106.558594 173.679688 103.90625 174.140625 100.480469 C 174.417969 98.398438 174.089844 96.28125 173.449219 94.292969 C 171.84375 89.328125 168.085938 85.597656 165.792969 80.988281 C 165.601562 80.609375 165.421875 80.21875 165.289062 79.8125 C 164.445312 77.226562 164.445312 74.714844 165.386719 72.332031 C 167.054688 68.125 170.875 65.78125 172.808594 61.71875 C 173.890625 59.445312 174.402344 57.019531 174.191406 54.191406 C 173.980469 51.347656 173.03125 48.074219 171.152344 44.121094 "/>
</g>
<g clip-path="url(#clip2)" clip-rule="nonzero">
<path style=" stroke:none;fill-rule:nonzero;fill:rgb(6.269836%,5.879211%,5.099487%);fill-opacity:1;" d="M 263.386719 199.394531 C 253.847656 207.976562 248.378906 220.238281 248.390625 233.117188 L 248.390625 257.359375 C 248.378906 258.324219 247.582031 259.101562 246.621094 259.089844 C 245.679688 259.089844 244.917969 258.3125 244.90625 257.359375 L 244.90625 240.507812 L 140.882812 240.507812 L 140.882812 257.359375 C 140.882812 258.324219 140.085938 259.101562 139.125 259.101562 C 138.179688 259.089844 137.410156 258.3125 137.410156 257.359375 L 137.410156 233.117188 C 137.394531 220.238281 131.941406 207.976562 122.402344 199.394531 C 116.917969 194.453125 116.464844 185.980469 121.375 180.464844 C 126.285156 174.964844 134.707031 174.496094 140.175781 179.449219 C 140.75 179.957031 141.269531 180.519531 141.746094 181.121094 L 165.179688 211.082031 C 166.828125 213.195312 169.355469 214.429688 172.03125 214.429688 L 213.757812 214.429688 C 216.433594 214.429688 218.960938 213.195312 220.609375 211.082031 L 244.054688 181.121094 C 248.578125 175.296875 256.960938 174.28125 262.75 178.84375 C 268.535156 183.410156 269.546875 191.832031 264.996094 197.65625 C 264.519531 198.285156 263.972656 198.871094 263.386719 199.394531 "/>
</g>
<g clip-path="url(#clip3)" clip-rule="nonzero">
<path style=" stroke:none;fill-rule:nonzero;fill:rgb(6.269836%,5.879211%,5.099487%);fill-opacity:1;" d="M 244.625 149.714844 C 244.625 141.921875 238.347656 135.605469 230.601562 135.605469 L 155.1875 135.605469 C 147.441406 135.605469 141.160156 141.921875 141.160156 149.714844 L 141.160156 175.726562 C 142.414062 176.648438 143.53125 177.722656 144.488281 178.953125 L 167.917969 208.914062 C 168.902344 210.183594 170.421875 210.921875 172.03125 210.921875 L 213.757812 210.921875 C 215.367188 210.921875 216.871094 210.183594 217.867188 208.914062 L 241.3125 178.953125 C 242.257812 177.722656 243.375 176.648438 244.625 175.726562 L 244.625 149.714844 "/>
</g>
</g>
</svg>
